<svg width="15" height="12" viewBox="0 0 15 12" fill="none" xmlns="http://www.w3.org/2000/svg">
<path d="M5 8H9.5395C12.3443 8 12.7708 6.5904 13.2881 4.53454C13.4374 3.94156 13.512 3.64507 13.3326 3.44754C13.1531 3.25 12.8092 3.25 12.1213 3.25H11.875M3.75 3.25H5" stroke="black" stroke-width="0.5" stroke-linecap="round"/>
<path d="M6.875 4.25C7.18219 4.50285 7.99988 5.5 8.4375 5.5M8.4375 5.5C8.87513 5.5 9.69281 4.50285 10 4.25M8.4375 5.5V1.5" stroke="black" stroke-width="0.5" stroke-linecap="round" stroke-linejoin="round"/>
<path d="M5 8L3.36171 1.75747C3.22259 1.3123 2.72261 1 2.14903 1H1.5625" stroke="black" stroke-width="0.5" stroke-linecap="round"/>
<path d="M5.55 8H5.29286C4.44076 8 3.75 8.57565 3.75 9.2857C3.75 9.40405 3.86512 9.5 4.00714 9.5H10.9375" stroke="black" stroke-width="0.5" stroke-linecap="round" stroke-linejoin="round"/>
<path d="M6.5625 11C7.08027 11 7.5 10.6642 7.5 10.25C7.5 9.83579 7.08027 9.5 6.5625 9.5C6.04473 9.5 5.625 9.83579 5.625 10.25C5.625 10.6642 6.04473 11 6.5625 11Z" stroke="black" stroke-width="0.5"/>
<path d="M10.9375 11C11.4553 11 11.875 10.6642 11.875 10.25C11.875 9.83579 11.4553 9.5 10.9375 9.5C10.4197 9.5 10 9.83579 10 10.25C10 10.6642 10.4197 11 10.9375 11Z" stroke="black" stroke-width="0.5"/>
</svg>
