<svg width="22" height="22" viewBox="0 0 22 22" fill="none" xmlns="http://www.w3.org/2000/svg">
<path d="M11.5 2H10.5C6.02166 2 3.78249 2 2.39124 3.39124C1 4.78249 1 7.02166 1 11.5C1 15.9783 1 18.2175 2.39124 19.6088C3.78249 21 6.02166 21 10.5 21C14.9783 21 17.2175 21 18.6088 19.6088C20 18.2175 20 15.9783 20 11.5V10.5" stroke="#141B34" stroke-width="1.5" stroke-linecap="round"/>
<path d="M21 4.5C21 6.433 19.433 8 17.5 8C15.567 8 14 6.433 14 4.5C14 2.567 15.567 1 17.5 1C19.433 1 21 2.567 21 4.5Z" stroke="#141B34" stroke-width="1.5"/>
<path d="M6 10H10" stroke="#141B34" stroke-width="1.5" stroke-linecap="round" stroke-linejoin="round"/>
<path d="M6 15H14" stroke="#141B34" stroke-width="1.5" stroke-linecap="round" stroke-linejoin="round"/>
</svg>
